<?xml version="1.0" standalone="no"?>
<!DOCTYPE svg PUBLIC "-//W3C//DTD SVG 20010904//EN"
 "http://www.w3.org/TR/2001/REC-SVG-20010904/DTD/svg10.dtd">
<svg version="1.0" xmlns="http://www.w3.org/2000/svg"
 width="366.000000pt" height="233.000000pt" viewBox="0 0 366.000000 233.000000"
 preserveAspectRatio="xMidYMid meet">

<g transform="translate(0.000000,233.000000) scale(0.100000,-0.100000)"
fill="#000000" stroke="none">
<path d="M1775 2280 c-16 -10 -35 -23 -41 -28 -31 -28 -244 -126 -409 -189
-142 -55 -183 -65 -297 -70 l-108 -6 0 -466 c0 -466 3 -523 38 -648 l17 -63
62 0 c56 0 63 -2 63 -20 0 -19 -7 -20 -93 -20 l-92 0 -25 -45 c-16 -30 -27
-40 -32 -32 -5 7 -6 -4 -2 -24 3 -22 2 -39 -5 -43 -6 -4 -11 -1 -11 6 0 10 -3
9 -11 -2 -8 -12 -9 -9 -4 10 10 37 16 77 10 64 -3 -7 -15 -10 -25 -7 -14 4
-23 -2 -30 -18 -10 -23 -10 -22 -5 4 4 19 2 26 -5 22 -5 -3 -10 -14 -11 -23 0
-12 -3 -10 -10 7 -7 17 -15 22 -29 18 -11 -3 -20 -2 -20 2 0 4 -10 7 -22 8
-26 1 -67 8 -114 18 -33 7 -58 -10 -30 -21 9 -3 13 -11 9 -17 -3 -6 -1 -7 6
-3 6 4 78 -17 160 -48 191 -72 502 -153 656 -171 28 -3 97 -12 155 -20 123
-17 420 -19 606 -6 129 10 371 47 502 77 128 29 400 118 441 143 44 28 -45 41
-115 18 -22 -7 -56 -13 -76 -12 -21 0 -38 -4 -38 -10 0 -6 -3 -6 -8 1 -14 20
-42 25 -43 6 0 -12 -3 -11 -10 6 -5 13 -13 21 -18 17 -13 -7 -36 34 -32 58 2
15 -7 17 -83 17 -79 0 -86 2 -86 20 0 18 7 20 71 20 45 0 68 4 64 10 -4 6 1
35 10 65 27 94 34 237 35 673 l0 422 -62 0 c-35 0 -83 7 -108 16 -25 9 -78 25
-119 35 -41 10 -100 28 -130 40 -31 12 -81 31 -111 43 -30 11 -57 23 -60 26
-3 3 -24 12 -47 20 -24 7 -43 17 -43 22 0 4 -9 8 -20 8 -11 0 -20 4 -20 8 0 4
-16 14 -35 21 -19 7 -35 16 -35 21 0 5 -13 11 -29 15 -16 3 -39 15 -52 26 -27
23 -55 23 -94 -1z m230 -340 c17 -4 40 -12 52 -18 12 -7 40 -12 62 -12 46 0
56 -16 14 -22 -49 -7 -123 3 -123 17 0 6 -14 16 -32 21 -17 5 -34 16 -36 23
-3 10 0 12 14 6 11 -4 33 -11 49 -15z m215 -54 c0 -3 -25 -16 -56 -30 -30 -14
-53 -29 -50 -34 3 -5 -6 -15 -19 -22 -14 -7 -25 -17 -25 -22 0 -4 -6 -8 -13
-8 -7 0 -28 -9 -48 -19 -23 -12 -41 -16 -50 -11 -10 7 -8 11 11 18 24 9 23 10
-15 17 -22 5 -50 15 -62 22 -12 8 -42 21 -65 28 l-43 13 38 7 c21 4 49 3 65
-3 15 -6 55 -16 90 -22 62 -11 63 -11 107 21 37 27 70 39 128 48 4 0 7 -1 7
-3z m-336 -170 c37 -22 42 -23 79 -10 46 16 105 18 142 4 48 -18 17 -30 -65
-23 -57 4 -80 3 -80 -6 0 -6 16 -11 38 -12 l37 0 -40 -19 c-22 -10 -53 -19
-68 -19 -16 -1 -38 -6 -49 -12 -16 -9 -24 -7 -36 5 -15 15 -14 16 16 16 18 0
32 3 32 8 0 14 -97 61 -139 68 -57 9 -33 24 39 24 40 0 65 -6 94 -24z m-100
-125 c53 -16 64 -17 93 -5 34 15 150 19 169 6 6 -4 16 -16 22 -28 11 -20 9
-21 -69 -16 -47 3 -79 1 -79 -5 0 -14 -103 -37 -134 -29 -16 4 -23 11 -20 20
7 18 -62 30 -122 21 -43 -6 -51 -1 -36 21 9 14 60 32 92 33 14 0 52 -8 84 -18z
m274 -92 c33 -7 56 -17 62 -29 14 -27 12 -43 -5 -36 -8 3 -51 13 -95 22 -89
18 -141 9 -160 -27 -14 -26 -66 -26 -80 1 -19 36 -76 44 -170 25 -46 -9 -90
-20 -98 -23 -11 -4 -11 1 2 26 13 24 25 32 66 41 82 18 157 14 200 -10 36 -20
38 -21 71 -3 19 10 50 20 69 24 37 6 52 5 138 -11z m60 -99 c34 -8 56 -19 63
-32 15 -27 10 -29 -41 -14 -109 33 -209 28 -241 -11 -13 -15 -12 -15 8 -5 33
18 107 14 217 -11 80 -19 101 -28 109 -45 6 -12 18 -24 29 -28 10 -3 26 -16
34 -30 9 -13 23 -24 30 -24 13 0 54 -55 54 -72 0 -5 -108 -8 -240 -8 -153 0
-240 -4 -240 -10 0 -6 -33 -10 -80 -10 -47 0 -80 4 -80 10 0 6 -89 10 -246 10
l-246 0 19 33 c10 17 28 36 40 42 12 5 27 20 34 32 7 13 21 23 30 23 10 0 25
12 33 28 13 24 25 30 124 51 78 17 126 22 164 18 47 -5 51 -5 34 8 -31 24 -96
27 -179 10 -43 -9 -85 -19 -94 -22 -14 -5 -13 -3 1 19 13 20 33 30 88 42 106
24 184 21 236 -9 l44 -25 29 20 c53 38 127 41 267 10z m-648 -540 c0 -18 -7
-20 -70 -20 -56 0 -70 -3 -70 -15 0 -12 14 -15 70 -15 63 0 70 -2 70 -20 0
-18 -7 -20 -70 -20 l-70 0 0 -35 c0 -32 -2 -35 -30 -35 l-30 0 0 71 c0 106 3
109 110 109 83 0 90 -1 90 -20z m218 8 c7 -7 12 -41 12 -84 0 -84 -1 -84 -95
-84 -95 0 -95 0 -95 89 0 43 3 81 7 84 12 12 158 8 171 -5z m243 -15 c16 -42
3 -73 -31 -80 -24 -4 -28 -8 -19 -19 6 -7 20 -14 32 -16 36 -5 27 -33 -12 -36
-28 -3 -40 3 -72 34 l-39 38 0 -37 c0 -33 -3 -37 -25 -37 -25 0 -25 1 -25 90
l0 90 90 0 c89 0 91 0 101 -27z m237 10 c-3 -15 -16 -19 -76 -21 l-72 -3 0
-49 0 -50 45 0 c55 0 65 27 13 32 -22 2 -34 9 -36 21 -3 15 5 17 62 17 l66 0
0 -43 c0 -24 -5 -48 -12 -55 -16 -16 -160 -16 -176 0 -7 7 -12 40 -12 78 0 38
5 71 12 78 8 8 45 12 101 12 79 0 88 -2 85 -17z m232 -3 c0 -18 -7 -20 -70
-20 -56 0 -70 -3 -70 -15 0 -12 14 -15 70 -15 63 0 70 -2 70 -20 0 -18 -7 -20
-70 -20 -56 0 -70 -3 -70 -15 0 -12 14 -15 70 -15 63 0 70 -2 70 -20 0 -19 -7
-20 -90 -20 -104 0 -110 5 -110 90 0 85 6 90 110 90 83 0 90 -1 90 -20z m467
-232 c-3 -7 -5 -2 -5 12 0 14 2 19 5 13 2 -7 2 -19 0 -25z m-90 -30 c-3 -7 -5
-2 -5 12 0 14 2 19 5 13 2 -7 2 -19 0 -25z"/>
<path d="M1528 1278 c-46 -10 -66 -28 -30 -28 59 0 231 25 220 32 -17 10 -131
8 -190 -4z"/>
<path d="M1912 1282 c-7 -5 37 -13 102 -20 135 -14 146 -15 146 -4 0 21 -219
42 -248 24z"/>
<path d="M1560 790 l0 -50 45 0 45 0 0 50 0 50 -45 0 -45 0 0 -50z"/>
<path d="M1790 825 c0 -11 12 -15 45 -15 33 0 45 4 45 15 0 11 -12 15 -45 15
-33 0 -45 -4 -45 -15z"/>
<path d="M3496 863 c-6 -14 -5 -15 5 -6 7 7 10 15 7 18 -3 3 -9 -2 -12 -12z"/>
<path d="M95 830 c-3 -5 1 -10 9 -10 9 0 16 5 16 10 0 6 -4 10 -9 10 -6 0 -13
-4 -16 -10z"/>
<path d="M3550 830 c0 -5 5 -10 11 -10 5 0 7 5 4 10 -3 6 -8 10 -11 10 -2 0
-4 -4 -4 -10z"/>
<path d="M455 753 l20 -16 -20 7 c-11 4 -22 8 -25 9 -3 1 -5 -2 -5 -8 0 -5 3
-9 8 -7 4 1 7 -3 7 -9 0 -6 -9 -8 -20 -4 -32 10 -23 -12 15 -38 19 -13 33 -26
30 -29 -3 -3 1 -11 10 -18 8 -7 15 -18 15 -25 0 -7 7 -16 17 -19 14 -6 14 -8
1 -19 -20 -16 -30 -45 -17 -52 5 -4 7 -11 4 -16 -3 -5 1 -6 11 -2 14 5 15 7 1
15 -21 11 -11 38 11 31 14 -4 14 -3 3 5 -11 8 -8 13 15 26 23 13 24 15 6 11
-16 -5 -22 -3 -20 7 2 7 -2 12 -9 11 -7 -2 -15 13 -18 35 -3 20 -8 45 -10 55
-2 9 4 24 12 32 13 13 38 15 157 10 111 -5 151 -3 186 8 43 15 33 15 -180 15
-206 1 -223 -1 -205 -15z"/>
<path d="M2743 755 c-2 -8 -2 -19 2 -24 10 -17 78 -31 120 -25 22 3 83 6 136
7 92 2 98 1 118 -23 11 -14 21 -36 21 -50 1 -26 17 -71 21 -57 5 22 4 33 -5
46 -9 11 -6 13 14 7 23 -6 23 -6 5 5 -26 16 -35 30 -28 43 3 5 1 6 -5 2 -6 -3
-13 3 -17 14 -3 11 -14 20 -23 20 -9 1 -30 7 -47 15 -16 8 -21 13 -9 10 11 -3
28 1 37 7 14 11 -15 13 -158 15 -141 1 -177 -1 -182 -12z m142 -10 c-16 -8
-37 -14 -45 -14 -8 0 1 7 20 14 46 18 64 17 25 0z m95 -5 c-8 -5 -22 -9 -30
-9 -10 0 -8 3 5 9 27 12 43 12 25 0z m-55 -18 c-3 -3 -11 0 -18 7 -9 10 -8 11
6 5 10 -3 15 -9 12 -12z"/>
<path d="M100 749 c0 -5 5 -7 10 -4 6 3 10 8 10 11 0 2 -4 4 -10 4 -5 0 -10
-5 -10 -11z"/>
<path d="M3090 740 c-8 -5 -10 -10 -5 -10 6 0 17 5 25 10 8 5 11 10 5 10 -5 0
-17 -5 -25 -10z"/>
<path d="M3496 717 c3 -10 9 -15 12 -12 3 3 0 11 -7 18 -10 9 -11 8 -5 -6z"/>
<path d="M515 681 c-3 -5 -1 -12 5 -16 6 -4 8 -11 5 -16 -6 -8 2 -11 23 -8 4
1 6 6 4 11 -2 6 4 8 13 5 22 -9 18 1 -6 14 -17 8 -20 8 -14 -1 5 -8 3 -11 -6
-8 -8 3 -13 11 -11 17 3 13 -5 15 -13 2z"/>
<path d="M3094 651 c3 -5 -1 -12 -10 -15 -8 -3 -12 -2 -9 4 8 13 2 13 -29 -2
-20 -9 -23 -14 -15 -25 6 -7 8 -13 3 -13 -12 0 19 -20 31 -20 6 0 3 5 -5 11
-12 9 -12 10 3 5 10 -3 21 -6 25 -6 3 0 -3 -6 -14 -14 -18 -14 -18 -15 -2 -21
10 -4 15 -12 11 -18 -3 -6 -1 -7 6 -3 9 6 9 11 0 22 -10 12 -9 13 6 8 13 -5
16 -4 11 4 -5 8 -2 10 8 6 11 -4 16 0 16 11 0 10 -5 15 -13 12 -8 -3 -14 1
-14 8 0 8 7 11 16 7 13 -5 14 -3 4 10 -7 8 -10 17 -7 20 2 3 -2 8 -11 12 -9 3
-14 2 -11 -3z"/>
<path d="M624 560 c-9 -22 -20 -40 -25 -40 -5 0 -9 -9 -9 -20 0 -12 -7 -35
-16 -51 -21 -41 -13 -56 32 -65 38 -7 46 -2 92 61 12 17 30 98 25 112 -6 14
-54 43 -73 43 -5 0 -17 -18 -26 -40z m60 -19 c9 -14 -44 -121 -60 -121 -19 0
-18 9 11 74 24 54 37 67 49 47z"/>
<path d="M2948 577 c-32 -12 -34 -26 -12 -68 8 -17 13 -37 10 -45 -3 -8 -1
-14 5 -14 6 0 19 -21 30 -46 15 -32 25 -44 36 -40 8 3 19 6 24 6 17 0 49 40
49 61 0 11 -10 35 -22 52 -12 17 -24 40 -25 52 -3 22 -38 56 -57 54 -6 -1 -23
-6 -38 -12z m52 -46 c7 -14 7 -22 -1 -27 -12 -7 -29 12 -29 34 0 19 18 14 30
-7z m40 -76 c13 -15 7 -45 -8 -45 -11 0 -32 46 -25 54 10 10 20 7 33 -9z"/>
<path d="M2827 523 c-3 -5 8 -41 25 -82 29 -74 32 -120 4 -90 -7 8 -25 47 -40
87 -15 39 -32 72 -37 72 -19 0 -21 -31 -6 -69 9 -21 13 -42 9 -45 -3 -4 -2
-10 4 -14 6 -4 19 -21 27 -39 21 -40 50 -50 84 -28 22 15 24 21 18 53 -4 21
-7 45 -8 55 -1 9 -4 17 -8 17 -3 0 -14 20 -23 45 -16 41 -37 57 -49 38z"/>
<path d="M461 506 c-8 -10 -9 -16 -1 -21 5 -3 10 -5 11 -3 4 18 7 38 4 38 -1
0 -8 -6 -14 -14z"/>
<path d="M805 491 c-8 -16 -20 -35 -27 -43 -7 -7 -24 -35 -37 -61 -19 -38 -22
-50 -12 -60 9 -9 16 -7 30 12 20 26 44 21 39 -7 -3 -19 9 -42 22 -42 15 0 56
203 44 221 -11 19 -44 8 -59 -20z m9 -86 c-4 -8 -8 -15 -10 -15 -2 0 -4 7 -4
15 0 8 4 15 10 15 5 0 7 -7 4 -15z"/>
<path d="M3111 506 c-20 -11 -21 -14 -6 -19 22 -9 27 -9 21 2 -3 5 0 8 7 7 14
-1 23 17 10 21 -4 1 -19 -4 -32 -11z"/>
<path d="M935 469 c-4 -6 1 -16 10 -23 12 -8 15 -19 10 -39 -4 -15 -11 -27
-16 -27 -5 0 -9 -11 -9 -24 0 -12 -5 -38 -11 -56 -9 -25 -9 -34 2 -40 19 -12
25 -6 39 45 7 25 16 45 20 45 4 0 8 6 7 13 -1 42 4 56 25 59 13 2 24 10 26 19
2 12 -9 19 -42 28 -55 13 -53 13 -61 0z"/>
<path d="M3120 470 c-8 -5 -10 -10 -5 -10 6 0 17 5 25 10 8 5 11 10 5 10 -5 0
-17 -5 -25 -10z"/>
<path d="M447 458 c-10 -5 -15 -13 -12 -19 4 -5 0 -9 -7 -9 -10 0 -11 -2 0 -8
9 -6 6 -12 -12 -20 -13 -6 -23 -18 -22 -26 3 -24 13 -29 33 -17 10 6 13 11 7
11 -6 0 -11 7 -11 15 0 9 7 13 16 10 9 -2 23 0 31 5 13 9 13 10 0 11 -10 0 -8
3 5 9 l20 9 -20 1 c-19 1 -19 1 -2 14 13 11 14 15 4 19 -7 3 -21 1 -30 -5z
m18 -8 c-3 -5 -12 -10 -18 -10 -7 0 -6 4 3 10 19 12 23 12 15 0z"/>
<path d="M3150 460 c-13 -9 -13 -10 0 -10 13 0 13 -1 0 -10 -20 -13 -4 -13 21
1 11 5 17 14 14 20 -8 11 -16 11 -35 -1z"/>
<path d="M2627 454 c-3 -3 1 -26 8 -52 8 -25 12 -49 9 -54 -3 -4 -1 -8 4 -8 6
0 13 -11 16 -25 3 -13 10 -35 16 -49 9 -24 11 -25 47 -12 22 7 40 21 42 31 2
15 -2 17 -28 12 -27 -6 -32 -3 -38 21 -4 15 -6 33 -5 40 2 6 -1 12 -6 12 -5 0
-15 20 -21 45 -10 40 -27 56 -44 39z"/>
<path d="M1094 388 c-10 -24 -21 -45 -24 -48 -7 -7 -31 -69 -37 -97 -7 -30 19
-31 39 -1 18 26 38 17 38 -18 0 -19 5 -25 18 -22 13 2 18 15 20 51 2 26 6 47
10 47 12 0 1 114 -12 122 -22 15 -33 7 -52 -34z m17 -91 c-8 -8 -11 -7 -11 4
0 20 13 34 18 19 3 -7 -1 -17 -7 -23z"/>
<path d="M2501 414 c-20 -15 -22 -21 -16 -67 4 -28 11 -58 15 -67 4 -8 13 -27
19 -42 8 -22 17 -28 40 -28 47 0 71 33 55 74 -10 26 -34 19 -34 -10 0 -19 -5
-25 -17 -22 -13 2 -22 22 -32 66 -15 64 -9 90 13 59 16 -21 46 -23 46 -2 0 18
-35 55 -53 55 -7 0 -23 -7 -36 -16z"/>
<path d="M3155 420 c-16 -7 -17 -9 -3 -9 9 -1 20 4 23 9 7 11 7 11 -20 0z"/>
<path d="M3198 412 c11 -7 11 -10 -2 -15 -9 -4 -24 -4 -33 -1 -14 5 -15 4 -4
-4 11 -8 11 -11 0 -16 -8 -3 -5 -4 7 -1 14 4 21 0 21 -10 0 -9 -6 -14 -13 -11
-7 3 -11 -2 -10 -12 3 -18 53 -25 62 -10 3 4 -5 8 -18 8 -18 0 -20 2 -8 9 8 6
18 7 22 5 4 -3 8 0 8 5 0 6 -4 11 -9 11 -4 0 -8 10 -7 22 0 11 -6 23 -14 25
-12 4 -12 3 -2 -5z"/>
<path d="M3251 384 c0 -11 3 -14 6 -6 3 7 2 16 -1 19 -3 4 -6 -2 -5 -13z"/>
<path d="M1336 364 c-9 -8 -16 -24 -16 -34 0 -25 21 -73 37 -83 15 -9 17 -43
4 -52 -6 -3 -15 4 -21 15 -13 24 -40 27 -40 4 0 -33 20 -54 53 -54 39 0 57 15
57 47 0 28 -21 75 -37 86 -15 10 -17 43 -3 52 6 3 13 -1 16 -9 8 -20 44 -21
44 -2 0 22 -29 46 -55 46 -13 0 -31 -7 -39 -16z"/>
<path d="M2259 373 c-26 -4 -27 -7 -25 -63 0 -33 4 -60 8 -60 4 0 10 -23 14
-51 l7 -51 36 6 c20 3 42 6 49 6 6 0 12 9 12 21 0 17 -5 20 -32 17 -28 -3 -34
1 -36 20 -3 17 2 25 18 29 25 7 23 38 -3 38 -17 0 -37 20 -37 38 0 4 14 13 30
18 17 6 30 17 30 25 0 14 -16 15 -71 7z"/>
<path d="M2110 347 c-21 -10 -26 -22 -30 -65 -3 -30 -2 -56 2 -58 4 -3 8 -18
8 -34 0 -35 23 -60 55 -60 30 0 59 41 50 70 -8 26 -35 26 -35 1 0 -21 -17 -37
-28 -27 -10 11 -21 130 -12 139 4 5 15 -1 23 -13 21 -30 50 -20 38 12 -13 35
-41 50 -71 35z"/>
<path d="M1492 338 c-7 -7 -12 -24 -12 -38 0 -14 -4 -30 -8 -35 -5 -6 -7 -34
-4 -63 3 -44 8 -55 28 -64 37 -17 74 4 74 42 0 35 -25 42 -33 9 -3 -12 -11
-19 -19 -17 -13 5 -14 73 -2 126 6 28 28 24 32 -6 4 -26 27 -29 36 -6 10 27
-20 64 -52 64 -16 0 -33 -5 -40 -12z"/>
<path d="M1640 296 c0 -25 -3 -47 -7 -49 -5 -3 -6 -32 -5 -66 3 -43 8 -61 17
-61 21 0 23 7 29 118 6 97 5 102 -14 102 -17 0 -20 -7 -20 -44z"/>
<path d="M1747 333 c-6 -10 -10 -91 -8 -160 l1 -53 50 0 c37 0 50 4 50 14 0 9
-12 16 -27 18 -22 2 -29 9 -31 31 -3 22 1 27 17 27 14 0 21 6 21 20 0 13 -7
20 -20 20 -15 0 -20 7 -20 25 0 21 5 25 30 25 23 0 30 4 30 20 0 17 -7 20 -44
20 -25 0 -47 -3 -49 -7z"/>
<path d="M1895 294 c4 -30 2 -50 -6 -60 -8 -10 -8 -14 0 -14 7 0 11 -20 11
-50 0 -43 3 -50 20 -50 17 0 20 7 21 53 l0 52 21 -52 c14 -36 26 -53 38 -53
15 0 19 10 22 58 5 77 -10 162 -28 162 -10 0 -14 -14 -14 -51 0 -59 -12 -57
-30 6 -11 38 -17 45 -37 45 -24 0 -25 -2 -18 -46z"/>
<path d="M640 236 c0 -2 7 -7 16 -10 8 -3 12 -2 9 4 -6 10 -25 14 -25 6z"/>
<path d="M728 203 c6 -2 18 -2 25 0 6 3 1 5 -13 5 -14 0 -19 -2 -12 -5z"/>
<path d="M2918 193 c7 -3 16 -2 19 1 4 3 -2 6 -13 5 -11 0 -14 -3 -6 -6z"/>
<path d="M848 163 c7 -3 16 -2 19 1 4 3 -2 6 -13 5 -11 0 -14 -3 -6 -6z"/>
<path d="M925 150 c11 -5 27 -9 35 -9 9 0 8 4 -5 9 -11 5 -27 9 -35 9 -9 0 -8
-4 5 -9z"/>
<path d="M2768 153 c7 -3 16 -2 19 1 4 3 -2 6 -13 5 -11 0 -14 -3 -6 -6z"/>
<path d="M1030 126 c0 -2 9 -6 20 -9 11 -3 18 -1 14 4 -5 9 -34 13 -34 5z"/>
<path d="M2638 123 c7 -3 16 -2 19 1 4 3 -2 6 -13 5 -11 0 -14 -3 -6 -6z"/>
<path d="M2598 113 c7 -3 16 -2 19 1 4 3 -2 6 -13 5 -11 0 -14 -3 -6 -6z"/>
<path d="M1118 103 c6 -2 18 -2 25 0 6 3 1 5 -13 5 -14 0 -19 -2 -12 -5z"/>
<path d="M1178 93 c6 -2 18 -2 25 0 6 3 1 5 -13 5 -14 0 -19 -2 -12 -5z"/>
<path d="M2508 93 c6 -2 18 -2 25 0 6 3 1 5 -13 5 -14 0 -19 -2 -12 -5z"/>
<path d="M1228 83 c7 -3 16 -2 19 1 4 3 -2 6 -13 5 -11 0 -14 -3 -6 -6z"/>
<path d="M2438 83 c7 -3 16 -2 19 1 4 3 -2 6 -13 5 -11 0 -14 -3 -6 -6z"/>
<path d="M1295 69 c22 -4 54 -8 70 -7 22 0 19 3 -15 9 -60 10 -108 9 -55 -2z"/>
<path d="M2368 73 c6 -2 18 -2 25 0 6 3 1 5 -13 5 -14 0 -19 -2 -12 -5z"/>
<path d="M2328 63 c7 -3 16 -2 19 1 4 3 -2 6 -13 5 -11 0 -14 -3 -6 -6z"/>
<path d="M1440 51 c63 -11 243 -21 200 -11 -19 4 -82 10 -140 13 -64 3 -87 2
-60 -2z"/>
<path d="M2223 53 c9 -2 25 -2 35 0 9 3 1 5 -18 5 -19 0 -27 -2 -17 -5z"/>
<path d="M2108 43 c12 -2 30 -2 40 0 9 3 -1 5 -23 4 -22 0 -30 -2 -17 -4z"/>
<path d="M1693 33 c9 -2 25 -2 35 0 9 3 1 5 -18 5 -19 0 -27 -2 -17 -5z"/>
<path d="M1823 33 c42 -2 112 -2 155 0 42 1 7 3 -78 3 -85 0 -120 -2 -77 -3z"/>
</g>
</svg>
